<?xml version="1.0" encoding="utf-8"?>
<!-- Generator: Adobe Illustrator 16.0.0, SVG Export Plug-In . SVG Version: 6.00 Build 0)  -->
<!DOCTYPE svg PUBLIC "-//W3C//DTD SVG 1.1//EN" "http://www.w3.org/Graphics/SVG/1.1/DTD/svg11.dtd">
<svg version="1.1" id="Layer_1" xmlns="http://www.w3.org/2000/svg" xmlns:xlink="http://www.w3.org/1999/xlink" x="0px" y="0px"
	 width="360px" height="360px" viewBox="0 0 360 360" enable-background="new 0 0 360 360" xml:space="preserve">
<g>
	<g>
		
			<rect x="58.996" y="58.376" transform="matrix(0.7042 -0.71 0.71 0.7042 -74.4597 181.6777)" fill="#FFFFFF" width="243.667" height="243.667"/>
	</g>
	<g>
		
			<rect x="58.996" y="58.376" transform="matrix(0.7042 -0.71 0.71 0.7042 -74.4597 181.6777)" fill="none" stroke="#000000" stroke-width="4" stroke-miterlimit="10" width="243.667" height="243.667"/>
	</g>
</g>
<g>
	<g>
		<g>
			<path d="M107.611,171.931c4.444,0,7.822-3.413,8.462-8.319c0.213-1.458-0.604-2.844-2.098-2.844c-1.6,0-2.275,0.96-2.417,2.026
				c-0.534,2.702-1.92,4.337-3.947,4.337c-3.058,0-5.013-2.951-5.013-7.644c0-4.8,1.707-7.608,4.8-7.608
				c1.671,0,3.306,1.351,3.306,2.453c0,1.315,1.102,2.382,2.417,2.382c1.387,0,2.382-0.96,2.382-2.382
				c0-4.018-3.662-7.289-8.106-7.289c-5.867,0-9.635,4.871-9.635,12.444C97.763,167.131,101.603,171.931,107.611,171.931z"/>
			<path d="M128.092,172.535c5.688,0,10.239-5.866,10.239-13.013c0-7.182-4.586-13.048-10.239-13.048
				c-5.653,0-10.204,5.866-10.204,13.048C117.888,166.705,122.439,172.535,128.092,172.535z M128.092,151.488
				c2.845,0,5.227,3.591,5.227,8.035c0,4.444-2.382,8.035-5.227,8.035c-2.809,0-5.226-3.626-5.226-8.035
				C122.866,155.114,125.283,151.488,128.092,151.488z"/>
			<path d="M142.529,171.931h13.296c1.387,0,2.489-1.066,2.489-2.417s-1.102-2.417-2.489-2.417h-10.843v-17.563
				c0-1.387-1.067-2.489-2.418-2.489s-2.453,1.102-2.453,2.489v19.981C140.111,170.899,141.142,171.931,142.529,171.931z"/>
			<path d="M170.297,172.535c5.688,0,10.239-5.866,10.239-13.013c0-7.182-4.586-13.048-10.239-13.048
				c-5.653,0-10.204,5.866-10.204,13.048C160.093,166.705,164.644,172.535,170.297,172.535z M170.297,151.488
				c2.845,0,5.227,3.591,5.227,8.035c0,4.444-2.382,8.035-5.227,8.035c-2.809,0-5.226-3.626-5.226-8.035
				C165.071,155.114,167.488,151.488,170.297,151.488z"/>
			<path d="M184.77,171.931c1.422,0,2.418-1.066,2.418-2.489v-8.248h4.337l4.587,9.35c0.604,1.245,1.92,1.742,3.199,1.209
				c1.245-0.569,1.742-2.026,1.138-3.342l-3.875-7.964c2.311-1.138,3.946-3.52,3.946-6.293c0-3.946-3.199-7.111-7.039-7.111h-8.746
				c-1.387,0-2.418,1.031-2.418,2.417v19.981C182.316,170.864,183.419,171.931,184.77,171.931z M187.188,151.915h6.293
				c1.173,0,2.204,1.031,2.204,2.24c0,1.138-1.066,2.204-2.204,2.204h-6.293V151.915z"/>
			<path d="M204.006,171.824c1.351,0.426,2.666-0.107,3.164-1.422l1.849-4.906h7.075l1.849,4.942
				c0.391,1.031,1.706,1.884,3.164,1.315c1.209-0.462,1.813-1.849,1.387-3.022l-7.68-20.408c-0.32-0.853-1.351-1.28-2.239-1.28
				c-0.89,0-1.885,0.427-2.205,1.28l-7.715,20.301C202.228,169.833,202.619,171.362,204.006,171.824z M212.574,156.003l1.671,4.586
				h-3.378L212.574,156.003z"/>
			<path d="M226.796,171.931h5.725c0.178,0,0.355-0.036,0.533-0.071c5.652-0.604,9.137-5.297,9.137-12.372
				c0-7.395-3.732-12.302-9.563-12.444h-0.106h-5.725c-1.386,0-2.382,1.067-2.382,2.382v0.106v0.107v19.91
				C224.414,170.829,225.445,171.931,226.796,171.931z M229.214,151.843h3.164c3.093,0,4.978,2.916,4.978,7.644
				c0,2.524-0.498,7.608-5.582,7.608h-2.56V151.843z"/>
			<path d="M264.413,159.522c0-7.182-4.587-13.048-10.239-13.048c-5.653,0-10.204,5.866-10.204,13.048
				c0,7.182,4.551,13.013,10.204,13.013C259.862,172.535,264.413,166.669,264.413,159.522z M254.174,167.558
				c-2.809,0-5.227-3.626-5.227-8.035c0-4.408,2.418-8.035,5.227-8.035c2.844,0,5.226,3.591,5.226,8.035
				C259.399,163.967,257.018,167.558,254.174,167.558z"/>
			<path d="M85.442,203.435c-1.6,0-2.275,0.96-2.417,2.027c-0.534,2.701-1.92,4.337-3.947,4.337c-3.058,0-5.013-2.951-5.013-7.644
				c0-4.8,1.707-7.608,4.8-7.608c1.671,0,3.306,1.351,3.306,2.453c0,1.315,1.102,2.382,2.417,2.382c1.387,0,2.382-0.96,2.382-2.382
				c0-4.018-3.662-7.288-8.106-7.288c-5.867,0-9.635,4.87-9.635,12.443c0,7.644,3.84,12.443,9.848,12.443
				c4.444,0,7.822-3.413,8.462-8.319C87.753,204.821,86.936,203.435,85.442,203.435z"/>
			<path d="M101.692,190.991c-0.32-0.853-1.351-1.279-2.24-1.279s-1.884,0.427-2.204,1.279l-7.715,20.301
				c-0.426,1.209-0.035,2.737,1.351,3.2c1.351,0.427,2.667-0.106,3.165-1.422l1.849-4.907h7.075l1.849,4.942
				c0.391,1.031,1.707,1.884,3.164,1.315c1.209-0.462,1.813-1.849,1.387-3.022L101.692,190.991z M97.746,203.257l1.707-4.586
				l1.671,4.586H97.746z"/>
			<path d="M130.208,189.712h-1.6c-0.996,0-1.884,0.604-2.169,1.528l-0.035,0.035l-4.444,13.439l-4.409-13.439l-0.036-0.035
				c-0.284-0.924-1.173-1.528-2.168-1.528h-1.6c-1.351,0-2.453,1.102-2.453,2.453v19.98c0,1.351,1.067,2.453,2.382,2.453
				s2.417-1.103,2.417-2.453v-9.884l3.093,10.026l0.036,0.07c0.249,0.534,0.924,2.24,2.737,2.24c1.849,0,2.524-1.706,2.773-2.24
				l0.036-0.07l3.093-10.026v9.884c0,1.351,1.102,2.453,2.417,2.453s2.382-1.103,2.382-2.453v-19.98
				C132.661,190.813,131.558,189.712,130.208,189.712z"/>
			<path d="M144.679,189.712h-7.821c-1.387,0-2.418,1.03-2.418,2.417v19.981c0,1.386,1.067,2.488,2.453,2.488
				c1.351,0,2.418-1.103,2.418-2.488v-7.04h5.368c4.125,0,7.644-3.484,7.644-7.68S148.804,189.712,144.679,189.712z
				 M144.679,200.129h-5.368v-5.547h5.368c1.529,0,2.809,1.352,2.809,2.809C147.488,198.849,146.208,200.129,144.679,200.129z"/>
			<path d="M169.533,201.159h-4.8c-1.315,0-2.382,1.067-2.382,2.347c0,1.315,1.031,2.347,2.382,2.347h2.382v1.315
				c0,1.636-1.315,2.702-3.556,2.702c-2.951,0-4.693-2.596-4.693-7.146c0-4.443,2.205-8.283,4.693-8.283
				c2.524,0,3.093,1.955,3.307,2.524c0.462,1.244,1.635,1.919,2.844,1.706c1.387-0.284,2.204-1.564,1.813-2.915
				c-1.066-3.805-4.017-6.044-7.964-6.044c-5.546,0-9.457,5.475-9.457,12.905c0,6.861,3.982,11.981,9.457,11.981
				c4.871,0,8.32-3.058,8.32-7.431v-3.662C171.879,202.119,170.884,201.159,169.533,201.159z"/>
			<path d="M187.915,203.115c2.311-1.138,3.946-3.52,3.946-6.293c0-3.946-3.199-7.11-7.039-7.11h-8.746
				c-1.387,0-2.418,1.03-2.418,2.417v19.981c0,1.422,1.103,2.488,2.453,2.488c1.422,0,2.418-1.066,2.418-2.488v-8.249h4.337
				l4.587,9.351c0.604,1.244,1.92,1.742,3.199,1.209c1.245-0.569,1.742-2.026,1.138-3.342L187.915,203.115z M184.822,199.026h-6.293
				v-4.444h6.293c1.173,0,2.204,1.031,2.204,2.24C187.026,197.96,185.96,199.026,184.822,199.026z"/>
			<path d="M204.022,189.143c-5.653,0-10.204,5.866-10.204,13.048s4.551,13.013,10.204,13.013c5.688,0,10.239-5.866,10.239-13.013
				C214.262,195.009,209.675,189.143,204.022,189.143z M204.022,210.226c-2.809,0-5.227-3.626-5.227-8.035
				c0-4.408,2.418-8.035,5.227-8.035c2.844,0,5.226,3.591,5.226,8.035S206.866,210.226,204.022,210.226z"/>
			<path d="M231.827,189.712c-1.387,0-2.418,1.066-2.418,2.523v13.938c0,2.239-1.777,3.84-4.267,3.84c-2.453,0-4.23-1.601-4.23-3.84
				v-13.938c0-1.457-1.031-2.523-2.418-2.523c-1.422,0-2.453,1.066-2.453,2.523v13.938c0,5.155,3.805,8.746,9.102,8.746
				c5.476,0,9.102-3.484,9.102-8.746v-13.938C234.244,190.778,233.213,189.712,231.827,189.712z"/>
			<path d="M251.383,189.712c-1.315,0-2.383,1.102-2.383,2.453v12.123l-6.896-12.977c-0.533-1.066-1.423-1.6-2.596-1.6h-1.103
				c-1.386,0-2.382,1.03-2.382,2.382v20.052c0,1.351,1.031,2.453,2.418,2.453c1.315,0,2.382-1.103,2.382-2.453v-12.835l7.288,13.368
				c0.392,0.676,0.925,1.92,2.453,1.92h0.818c1.387,0,2.382-1.031,2.382-2.382v-20.052
				C253.765,190.813,252.77,189.712,251.383,189.712z"/>
			<path d="M263.757,189.712h-0.106h-5.725c-1.386,0-2.382,1.066-2.382,2.382v0.106v0.106v19.91c0,1.279,1.031,2.382,2.382,2.382
				h5.725c0.178,0,0.355-0.035,0.533-0.071c5.652-0.604,9.137-5.297,9.137-12.372C273.32,194.76,269.588,189.854,263.757,189.712z
				 M262.903,209.764h-2.56v-15.253h3.164c3.094,0,4.978,2.916,4.978,7.645C268.485,204.68,267.987,209.764,262.903,209.764z"/>
			<path d="M284.628,200.093c-3.733-0.782-4.8-1.457-4.8-2.844c0-1.707,1.493-2.845,4.053-2.845c1.85,0,2.561,1.493,3.378,2.809
				c0.676,1.103,1.636,1.564,2.702,1.315c1.493-0.284,2.24-1.92,1.564-3.413c-1.529-3.448-4.23-5.403-7.645-5.403
				c-5.19,0-8.781,3.093-8.781,7.537c0,5.76,5.333,6.684,8.604,7.288c3.947,0.711,4.516,1.103,4.516,2.737
				c0,1.529-1.564,2.596-4.018,2.596c-1.849,0-3.484-1.066-4.586-3.093c-0.604-1.031-1.707-1.529-2.773-1.103
				c-1.493,0.392-2.026,2.026-1.28,3.52c1.458,3.307,4.907,5.404,8.64,5.404c5.084,0,8.746-2.986,8.746-7.324
				C292.947,201.408,287.721,200.626,284.628,200.093z"/>
		</g>
	</g>
</g>
<g>
	<g>
		<polygon fill="none" stroke="#000000" stroke-width="3" stroke-miterlimit="10" points="250.723,114.15 221.093,77.2 
			213.073,82.428 203.313,60.467 198.435,67.09 179.435,40.945 146.842,96.023 140.916,91.492 124.531,114.15 110.587,107.179 
			84.792,132.975 274.078,132.975 253.744,110.664 		"/>
	</g>
</g>
<g>
	<g>
		<polyline points="163.214,227.237 196.04,227.237 191.979,227.237 287.788,227.237 181.309,334.18 74.133,227.237 
			169.941,227.237 		"/>
	</g>
	<g>
		<polyline fill="none" stroke="#000000" stroke-width="2" stroke-miterlimit="10" points="163.214,227.237 196.04,227.237 
			191.979,227.237 287.788,227.237 181.309,334.18 74.133,227.237 169.941,227.237 		"/>
	</g>
</g>
<g>
	<g>
		<ellipse fill="#FFFFFF" cx="182.006" cy="264.536" rx="38.041" ry="44.566"/>
	</g>
	<g>
		
			<ellipse fill="none" stroke="#FFFFFF" stroke-width="2" stroke-miterlimit="10" cx="182.006" cy="264.536" rx="38.041" ry="44.566"/>
	</g>
</g>
<g>
	<g>
		<polygon points="168.603,257.591 171.795,254.726 173.923,252.682 176.459,250.307 178.505,248.344 180.715,245.889 
			181.941,244.17 182.597,241.552 182.597,238.688 182.597,235.739 181.941,232.548 181.353,230.749 180.552,228.948 
			179.897,226.082 179.733,223.627 179.651,221.91 179.816,220.354 178.177,221.827 176.787,223.709 174.904,226.002 
			173.758,228.621 172.777,230.42 172.45,232.058 172.613,235.494 172.531,237.049 172.368,240.979 172.122,244.906 
			171.795,246.706 170.976,249.245 169.912,251.863 168.603,255.054 167.703,256.773 166.801,258.246 		"/>
	</g>
	<g>
		<polygon fill="none" stroke="#FFFFFF" stroke-miterlimit="10" points="168.603,257.591 171.795,254.726 173.923,252.682 
			176.459,250.307 178.505,248.344 180.715,245.889 181.941,244.17 182.597,241.552 182.597,238.688 182.597,235.739 
			181.941,232.548 181.353,230.749 180.552,228.948 179.897,226.082 179.733,223.627 179.651,221.91 179.816,220.354 
			178.177,221.827 176.787,223.709 174.904,226.002 173.758,228.621 172.777,230.42 172.45,232.058 172.613,235.494 
			172.531,237.049 172.368,240.979 172.122,244.906 171.795,246.706 170.976,249.245 169.912,251.863 168.603,255.054 
			167.703,256.773 166.801,258.246 		"/>
	</g>
</g>
<g>
	<g>
		<path d="M192.912,298.062l0.652-0.341l1.201-0.709l1.254-0.82l0.872-0.763l0.765-1.146l0.765-1.365l0.655-1.745v-1.254
			l-0.274-1.473l-0.436-1.2l-1.093-1.746l-1.637-2.127l-1.908-1.802l-1.856-1.451l-2.235-1.661l-1.857-0.98l-2.07-1.746
			l-1.419-2.399l-0.982-2.512l-0.383-1.526l-0.219-3.711v-1.964v-1.528l-0.436,0.874l-0.918,1.256l-1.265,1.417l-0.6,1.364
			l-0.928,1.801l-0.491,1.91l0.054,2.291l0.382,2.509l0.655,2.456l0.601,2.237v2.728v2.455l-0.437,1.311l-0.928,1.256l-1.473,0.543
			l-1.49-0.053l-1.347-0.655l-2.236-1.693l-1.418-1.688l-1.365-1.692v1.2v2.072v2.074l0.328,1.964l1.364,2.838l1.964,2.893
			l2.711,2.391c-1.773-0.29-4.866-0.783-4.866-0.783s-3.929-1.391-4.501-1.554c-0.573-0.165-3.929-1.474-3.929-1.474l-3.682-2.271
			c-3.893-3.106-6.42-8.126-6.42-13.789c0-7.264,4.159-13.47,10.021-15.939l2.373-0.407l-0.491,1.636l-1.472,3.518l-0.901,3.6
			l-0.654,3.439l0.082,2.876v1.708l0.736,1.882l1.228,1.307l1.473,1.394v-3.764v-4.34l0.982-5.154l1.228-3.109l1.391-3.274
			l1.391-1.717l2.292-2.702l2.209-1.965l2.618-2.21l2.619-2.372l2.209-2.539l2.7-2.454l1.884-2.536l1.719-2.865l0.9-2.701v-2.619
			l-0.737-3.028l-0.326-0.571l2.699,1.227l2.292,1.228l2.047,1.801l2.128,2.291l0.734,1.393l0.819,1.718v0.737v1.718v1.801v1.718
			l-0.408,1.801l-0.737,1.965l-0.327,1.555l-0.736,1.229l-0.981,2.127l-0.819,1.801l-0.41,1.637l-0.818,1.606l-0.736,1.749
			l-0.245,1.392l-0.081,1.227l0.491,1.146l0.571,0.737l0.981,0.653l1.229,0.165l1.555-0.328l0.982-0.817l1.228-1.392l0.981-1.392
			l1.064-1.473l0.572-1.309l0.409-1.557l0.409-1.556v-1.718v-1.394l2.209,2.457l1.228,2.047l0.738,0.735l0.491,0.984l0.654,1.309
			l0.491,1.31l0.654,1.39l0.573,1.392l0.409,1.882l0.407,2.21l0.411,3.356v2.619l-0.491,2.699l-0.245,2.131l-0.983,2.699
			l-0.735,2.291l-1.065,2.128l-1.226,2.129l-0.247,0.9l-1.474,1.391c0,0-2.618,1.554-2.862,1.554c-0.246,0-2.947,0.9-2.947,0.9
			L192.912,298.062z"/>
	</g>
	<g>
		<path fill="none" stroke="#FFFFFF" stroke-miterlimit="10" d="M192.912,298.062l0.652-0.341l1.201-0.709l1.254-0.82l0.872-0.763
			l0.765-1.146l0.765-1.365l0.655-1.745v-1.254l-0.274-1.473l-0.436-1.2l-1.093-1.746l-1.637-2.127l-1.908-1.802l-1.856-1.451
			l-2.235-1.661l-1.857-0.98l-2.07-1.746l-1.419-2.399l-0.982-2.512l-0.383-1.526l-0.219-3.711v-1.964v-1.528l-0.436,0.874
			l-0.918,1.256l-1.265,1.417l-0.6,1.364l-0.928,1.801l-0.491,1.91l0.054,2.291l0.382,2.509l0.655,2.456l0.601,2.237v2.728v2.455
			l-0.437,1.311l-0.928,1.256l-1.473,0.543l-1.49-0.053l-1.347-0.655l-2.236-1.693l-1.418-1.688l-1.365-1.692v1.2v2.072v2.074
			l0.328,1.964l1.364,2.838l1.964,2.893l2.711,2.391c-1.773-0.29-4.866-0.783-4.866-0.783s-3.929-1.391-4.501-1.554
			c-0.573-0.165-3.929-1.474-3.929-1.474l-3.682-2.271c-3.893-3.106-6.42-8.126-6.42-13.789c0-7.264,4.159-13.47,10.021-15.939
			l2.373-0.407l-0.491,1.636l-1.472,3.518l-0.901,3.6l-0.654,3.439l0.082,2.876v1.708l0.736,1.882l1.228,1.307l1.473,1.394v-3.764
			v-4.34l0.982-5.154l1.228-3.109l1.391-3.274l1.391-1.717l2.292-2.702l2.209-1.965l2.618-2.21l2.619-2.372l2.209-2.539l2.7-2.454
			l1.884-2.536l1.719-2.865l0.9-2.701v-2.619l-0.737-3.028l-0.326-0.571l2.699,1.227l2.292,1.228l2.047,1.801l2.128,2.291
			l0.734,1.393l0.819,1.718v0.737v1.718v1.801v1.718l-0.408,1.801l-0.737,1.965l-0.327,1.555l-0.736,1.229l-0.981,2.127
			l-0.819,1.801l-0.41,1.637l-0.818,1.606l-0.736,1.749l-0.245,1.392l-0.081,1.227l0.491,1.146l0.571,0.737l0.981,0.653l1.229,0.165
			l1.555-0.328l0.982-0.817l1.228-1.392l0.981-1.392l1.064-1.473l0.572-1.309l0.409-1.557l0.409-1.556v-1.718v-1.394l2.209,2.457
			l1.228,2.047l0.738,0.735l0.491,0.984l0.654,1.309l0.491,1.31l0.654,1.39l0.573,1.392l0.409,1.882l0.407,2.21l0.411,3.356v2.619
			l-0.491,2.699l-0.245,2.131l-0.983,2.699l-0.735,2.291l-1.065,2.128l-1.226,2.129l-0.247,0.9l-1.474,1.391
			c0,0-2.618,1.554-2.862,1.554c-0.246,0-2.947,0.9-2.947,0.9L192.912,298.062z"/>
	</g>
</g>
<g>
	<g>
		<polyline points="91.938,132.975 106.927,118.683 113.898,121.123 115.293,116.068 127.668,122.691 132.375,115.023 
			136.906,116.766 141.09,108.051 149.107,109.445 155.556,96.896 164.271,80.164 173.857,70.577 176.995,73.191 183.444,69.706 
			188.324,79.117 191.113,88.878 197.91,82.429 200.699,77.723 203.141,85.043 207.322,94.281 214.294,101.34 218.478,93.584 
			221.093,98.291 228.236,99.858 233.814,104.39 236.081,112.757 243.576,117.812 245.843,121.297 251.768,120.426 256.648,123.214 
			261.877,128.443 263.621,132.975 		"/>
	</g>
	<g>
		<polyline fill="none" stroke="#000000" stroke-width="2" stroke-miterlimit="10" points="91.938,132.975 106.927,118.683 
			113.898,121.123 115.293,116.068 127.668,122.691 132.375,115.023 136.906,116.766 141.09,108.051 149.107,109.445 
			155.556,96.896 164.271,80.164 173.857,70.577 176.995,73.191 183.444,69.706 188.324,79.117 191.113,88.878 197.91,82.429 
			200.699,77.723 203.141,85.043 207.322,94.281 214.294,101.34 218.478,93.584 221.093,98.291 228.236,99.858 233.814,104.39 
			236.081,112.757 243.576,117.812 245.843,121.297 251.768,120.426 256.648,123.214 261.877,128.443 263.621,132.975 		"/>
	</g>
</g>
<g>
	<g>
		<rect x="161.483" y="90.795" width="6.274" height="7.451"/>
	</g>
	<g>
		
			<rect x="161.483" y="90.795" fill="none" stroke="#000000" stroke-width="2" stroke-miterlimit="10" width="6.274" height="7.451"/>
	</g>
</g>
</svg>
